<svg width="20" height="20" viewBox="0 0 20 20" fill="none" xmlns="http://www.w3.org/2000/svg">
<path d="M18.7498 8.19961C17.0301 8.20372 15.3525 7.6674 13.9541 6.66641V13.6477C13.9536 14.9407 13.5584 16.2027 12.8213 17.265C12.0842 18.3274 11.0404 19.1393 9.82933 19.5924C8.6183 20.0455 7.29782 20.118 6.04445 19.8003C4.79108 19.4826 3.66456 18.7899 2.81554 17.8147C1.96651 16.8395 1.43545 15.6283 1.29335 14.3431C1.15125 13.058 1.40489 11.76 2.02036 10.6229C2.63583 9.48578 3.58379 8.56366 4.73749 7.97983C5.89118 7.39601 7.19562 7.17832 8.47637 7.35586V10.8672C7.8903 10.6828 7.26095 10.6884 6.67822 10.8831C6.09549 11.0777 5.58917 11.4515 5.23156 11.9511C4.87396 12.4507 4.68335 13.0505 4.68697 13.6649C4.69059 14.2793 4.88824 14.8768 5.25171 15.3721C5.61518 15.8675 6.12587 16.2353 6.71085 16.4231C7.29584 16.6109 7.9252 16.609 8.50907 16.4178C9.09293 16.2265 9.60144 15.8557 9.96197 15.3582C10.3225 14.8607 10.5166 14.262 10.5166 13.6477V0H13.9541C13.9517 0.290289 13.976 0.580182 14.0268 0.866016C14.1462 1.50409 14.3946 2.1111 14.7567 2.6499C15.1188 3.1887 15.587 3.64796 16.1326 3.99961C16.9089 4.51293 17.8191 4.78652 18.7498 4.78633V8.19961Z" fill="white"/>
</svg>
