<svg width="16" height="16" viewBox="0 0 16 16" fill="none" xmlns="http://www.w3.org/2000/svg">
<path d="M5.74999 2.25C5.74999 1.00734 6.75734 0 7.99999 0C9.24265 0 10.25 1.00734 10.25 2.25C10.25 3.49262 9.24265 4.5 7.99999 4.5C6.75734 4.5 5.74999 3.49262 5.74999 2.25ZM13.7071 2.29291C13.3166 1.90237 12.6834 1.90237 12.2929 2.29291L9.58577 5H6.41418L3.70709 2.29291C3.31659 1.90237 2.6834 1.90237 2.2929 2.29291C1.90237 2.68344 1.90237 3.31659 2.2929 3.70712L5.24999 6.66419V15C5.24999 15.5523 5.69771 16 6.24999 16H6.74999C7.30227 16 7.74999 15.5523 7.74999 15V11.5H8.24999V15C8.24999 15.5523 8.69771 16 9.24999 16H9.74999C10.3023 16 10.75 15.5523 10.75 15V6.66419L13.7071 3.70709C14.0976 3.31656 14.0976 2.68344 13.7071 2.29291Z" fill="black"/>
</svg>
