<svg width="26" height="26" viewBox="0 0 26 26" fill="none" xmlns="http://www.w3.org/2000/svg">
<path d="M13 0.40625C6.04464 0.40625 0.40625 6.04464 0.40625 13C0.40625 19.9554 6.04464 25.5938 13 25.5938C19.9554 25.5938 25.5938 19.9554 25.5938 13C25.5938 6.04464 19.9554 0.40625 13 0.40625ZM13 2.84375C18.613 2.84375 23.1562 7.38618 23.1562 13C23.1562 18.613 18.6138 23.1562 13 23.1562C7.38705 23.1562 2.84375 18.6138 2.84375 13C2.84375 7.38705 7.38618 2.84375 13 2.84375ZM20.1197 9.45887L18.9753 8.30522C18.7383 8.0663 18.3525 8.06472 18.1136 8.30177L10.9355 15.4221L7.89923 12.3612C7.66223 12.1222 7.27639 12.1207 7.03747 12.3577L5.88377 13.5021C5.64484 13.7391 5.64327 14.1249 5.88032 14.3639L10.4903 19.0112C10.7273 19.2501 11.1131 19.2517 11.352 19.0146L20.1163 10.3207C20.3552 10.0836 20.3567 9.6978 20.1197 9.45887Z" fill="black"/>
</svg>
