<svg width="16" height="16" viewBox="0 0 16 16" fill="none" xmlns="http://www.w3.org/2000/svg">
<path d="M15.1722 1.15877C15.0166 0.811551 14.5722 0.797662 14.3861 1.12544C13.5249 2.62266 11.9833 3.556 10.2222 3.556H7.99995C5.0555 3.556 2.66661 5.94488 2.66661 8.88933C2.66661 9.08377 2.68883 9.26988 2.70828 9.45877C4.4805 8.18933 7.03883 7.11155 10.6666 7.11155C10.9111 7.11155 11.1111 7.31155 11.1111 7.556C11.1111 7.80044 10.9111 8.00044 10.6666 8.00044C3.68328 8.00044 0.722167 12.281 0.0666117 13.8893C-0.116722 14.3421 0.099945 14.8588 0.552723 15.0449C1.00828 15.2338 1.52495 15.0143 1.71383 14.5643C1.7555 14.4643 2.29439 13.2338 3.71106 12.0477C4.61106 13.2671 6.32217 14.431 8.56939 14.1921C12.9305 13.8754 15.9999 9.96433 15.9999 5.17544C15.9999 3.781 15.6999 2.33655 15.1722 1.15877Z" fill="black"/>
</svg>
