<svg width="20" height="20" viewBox="0 0 20 20" fill="none" xmlns="http://www.w3.org/2000/svg">
<path d="M19.0853 5.41922C18.8672 4.59804 18.2246 3.95131 17.4088 3.73183C15.9299 3.33301 10 3.33301 10 3.33301C10 3.33301 4.07019 3.33301 2.59133 3.73183C1.77546 3.95134 1.13289 4.59804 0.914805 5.41922C0.518555 6.90766 0.518555 10.0131 0.518555 10.0131C0.518555 10.0131 0.518555 13.1186 0.914805 14.6071C1.13289 15.4283 1.77546 16.048 2.59133 16.2675C4.07019 16.6663 10 16.6663 10 16.6663C10 16.6663 15.9299 16.6663 17.4088 16.2675C18.2246 16.048 18.8672 15.4283 19.0853 14.6071C19.4815 13.1186 19.4815 10.0131 19.4815 10.0131C19.4815 10.0131 19.4815 6.90766 19.0853 5.41922ZM8.06064 12.8327V7.1936L13.0169 10.0132L8.06064 12.8327Z" fill="white"/>
</svg>
